<?xml version="1.0" standalone="no"?>
<!DOCTYPE svg PUBLIC "-//W3C//DTD SVG 20010904//EN"
 "http://www.w3.org/TR/2001/REC-SVG-20010904/DTD/svg10.dtd">
<svg version="1.0" xmlns="http://www.w3.org/2000/svg"
 width="600.000000pt" height="400.000000pt" viewBox="0 0 1010.000000 662.000000"
 preserveAspectRatio="xMidYMid meet">

<g transform="translate(0.000000,662.000000) scale(0.075, -0.075)"
fill="#000000" stroke="none">
<path d="M2 3313 l3 -3308 5048 -3 5047 -2 0 3310 0 3310 -5050 0 -5050 0 2
-3307z m2832 981 c9 -3 16 -16 16 -28 1 -43 36 -102 73 -119 49 -24 88 -21
131 8 20 14 45 25 54 25 10 0 44 -27 77 -60 l60 -60 -28 -49 c-32 -58 -34
-104 -7 -149 20 -33 71 -62 108 -62 11 0 25 -7 32 -15 16 -19 16 -160 1 -179
-6 -7 -28 -16 -49 -20 -46 -8 -78 -34 -97 -80 -18 -43 -12 -77 22 -128 24 -35
24 -39 10 -60 -25 -36 -39 -50 -80 -86 l-38 -32 -43 25 c-99 58 -187 19 -211
-95 -4 -19 -13 -38 -19 -42 -6 -4 -46 -8 -88 -8 -88 0 -102 8 -112 68 -7 47
-49 88 -100 98 -39 7 -70 -1 -108 -27 -14 -11 -33 -19 -42 -19 -20 0 -126 104
-126 125 0 8 9 28 20 43 29 40 36 92 16 134 -19 39 -79 78 -120 78 -34 0 -46
30 -46 119 0 74 10 91 51 91 33 0 90 38 106 70 20 40 16 93 -12 134 -14 20
-25 42 -25 49 0 16 78 101 111 121 24 15 28 15 53 -5 33 -26 105 -36 143 -20
37 16 63 53 70 99 3 20 12 43 21 50 16 12 147 17 176 6z m1768 -421 c16 -15
18 -35 18 -223 l0 -207 61 31 c117 57 235 45 322 -33 70 -63 75 -86 78 -341
l3 -225 -55 -3 c-87 -5 -87 -4 -91 235 l-3 203 -33 32 c-31 31 -36 33 -106 33
-67 0 -77 -3 -125 -35 l-51 -35 0 -211 c0 -239 5 -224 -81 -224 -31 0 -51 5
-54 13 -2 6 -5 236 -7 510 l-3 497 54 0 c37 0 60 -5 73 -17z m2676 -276 l3
-97 74 0 75 0 0 -65 c0 -61 -1 -65 -26 -71 -14 -4 -48 -4 -75 -2 l-50 5 3
-168 c2 -121 7 -172 16 -181 8 -8 36 -13 72 -12 57 1 59 0 70 -29 5 -16 10
-42 10 -58 0 -35 -37 -49 -130 -49 -72 0 -114 19 -152 70 -23 31 -38 152 -38
308 l0 112 -33 0 c-66 0 -77 52 -21 98 48 40 112 126 141 190 17 39 28 52 41
50 14 -3 17 -18 20 -101z m-3051 -117 c76 -33 82 -43 53 -96 -29 -53 -42 -59
-83 -38 -40 21 -147 30 -175 15 -29 -16 -29 -56 1 -75 12 -8 58 -26 102 -40
192 -60 258 -167 180 -288 -38 -57 -119 -91 -220 -91 -88 0 -175 26 -222 67
l-26 22 26 41 c15 23 30 44 34 46 5 3 40 -6 78 -19 105 -35 186 -28 200 17 12
38 -13 57 -113 88 -153 48 -212 104 -212 204 0 71 50 131 136 163 56 21 175
13 241 -16z m1376 19 c23 -5 52 -18 65 -28 l23 -17 -33 -49 c-27 -41 -38 -49
-58 -47 -14 2 -53 6 -88 9 -62 5 -63 4 -102 -35 l-40 -40 0 -206 0 -206 -23
-5 c-13 -4 -43 -5 -68 -3 l-44 3 -3 313 -2 312 54 0 c46 0 58 -4 74 -24 18
-24 20 -24 42 -9 28 20 96 41 133 42 16 1 47 -4 70 -10z m570 -9 c106 -40 187
-152 187 -261 0 -92 -2 -93 -251 -97 -130 -2 -209 -7 -209 -13 0 -22 31 -68
58 -88 68 -48 178 -46 276 5 l50 26 23 -28 c13 -16 23 -32 23 -36 0 -17 -106
-98 -147 -112 -65 -22 -170 -21 -236 4 -272 102 -272 494 0 600 65 26 158 25
226 0z m690 -17 c37 -18 67 -36 67 -40 0 -11 -51 -86 -63 -95 -6 -3 -32 2 -59
13 -91 36 -188 19 -188 -31 0 -26 19 -38 115 -70 155 -52 225 -112 225 -190 0
-41 -29 -108 -56 -132 -92 -82 -298 -81 -414 2 l-30 22 22 39 c35 62 41 64 99
39 101 -43 202 -36 215 15 9 37 -9 52 -90 77 -162 48 -236 112 -236 203 0 157
208 235 393 148z m1091 26 c52 -14 120 -79 133 -126 6 -21 13 -141 15 -268 l3
-230 -47 -3 c-47 -3 -52 0 -83 56 -1 1 -24 -10 -50 -25 -64 -35 -192 -45 -260
-19 -136 52 -153 221 -31 304 49 32 163 72 269 92 51 10 57 14 57 36 0 13 -10
34 -21 45 -20 20 -29 21 -103 16 -47 -3 -103 -14 -134 -26 -29 -12 -58 -21
-66 -21 -14 0 -46 61 -46 90 0 56 251 110 364 79z m-5395 -543 c91 -88 123
-106 191 -106 74 0 113 21 201 107 l79 77 53 -14 c104 -26 177 -69 262 -154
82 -82 122 -148 150 -246 18 -62 27 -152 17 -168 -7 -10 -166 -12 -763 -10
l-754 3 -3 41 c-10 133 90 333 213 426 74 56 201 113 264 117 7 1 48 -32 90
-73z"/>
<path d="M2707 4223 c-2 -5 -7 -20 -11 -35 -23 -99 -171 -159 -268 -109 l-37
18 -26 -27 -26 -28 20 -38 c35 -65 24 -153 -27 -210 -29 -33 -81 -64 -107 -64
-11 0 -15 -11 -15 -44 0 -39 3 -44 28 -49 42 -9 95 -49 119 -92 28 -49 30
-129 6 -180 -17 -35 -17 -36 9 -62 l27 -27 43 20 c103 46 210 7 258 -93 23
-49 27 -53 61 -53 33 0 37 3 48 38 33 108 172 165 271 112 l35 -18 27 25 27
26 -19 38 c-54 105 -3 236 106 274 36 12 39 16 39 50 0 34 -3 38 -40 50 -58
20 -122 94 -130 149 -8 51 0 101 22 135 14 22 13 25 -10 49 l-26 25 -50 -21
c-56 -25 -79 -27 -136 -11 -49 13 -120 84 -130 128 -6 28 -10 31 -45 31 -21 0
-41 -3 -43 -7z m164 -275 c87 -37 156 -132 166 -231 19 -185 -153 -344 -333
-307 -191 39 -290 236 -204 407 69 138 226 194 371 131z"/>
<path d="M2687 3897 c-88 -28 -148 -110 -149 -201 -1 -129 88 -220 218 -221
50 0 69 5 109 30 62 38 105 114 105 185 0 142 -148 251 -283 207z"/>
<path d="M5985 3366 c-37 -16 -70 -52 -84 -88 l-11 -28 160 0 c177 0 178 0
137 61 -41 62 -131 86 -202 55z"/>
<path d="M7860 3145 c-128 -33 -170 -65 -156 -119 13 -52 104 -59 205 -15 l51
21 0 69 c0 38 -1 69 -2 69 -2 -1 -46 -12 -98 -25z"/>
<path d="M2405 2946 c-156 -50 -289 -188 -330 -344 -28 -112 -49 -102 213
-102 126 0 438 3 694 7 l465 6 -8 50 c-5 28 -24 83 -43 124 -58 121 -161 210
-299 259 l-39 14 -72 -67 c-89 -83 -150 -113 -231 -113 -81 0 -145 31 -232
114 -39 36 -72 66 -74 65 -2 0 -22 -6 -44 -13z"/>
</g>
</svg>
